<svg width="17" height="17" viewBox="0 0 17 17" fill="none" xmlns="http://www.w3.org/2000/svg">
<path d="M10.2572 0.500001C10.3324 0.499867 10.407 0.514567 10.4766 0.543262C10.5461 0.571956 10.6094 0.614083 10.6627 0.667232L16.3323 6.33706C16.4397 6.44446 16.5 6.5901 16.5 6.74197C16.5 6.89383 16.4397 7.03947 16.3323 7.14687C15.7825 7.69667 15.1045 7.82038 14.6108 7.82038C14.4081 7.82038 14.2271 7.79976 14.0839 7.77571L10.4943 11.3655C10.5888 11.7462 10.6501 12.1344 10.6775 12.5258C10.7302 13.3298 10.6409 14.4581 9.85287 15.2461C9.74547 15.3535 9.59983 15.4138 9.44797 15.4138C9.29611 15.4138 9.15047 15.3535 9.04308 15.2461L5.80278 12.0069L2.15815 15.6516C1.9348 15.875 0.761925 16.6848 0.538575 16.4614C0.315224 16.2381 1.12501 15.064 1.34836 14.8418L4.99299 11.1971L1.75383 7.95668C1.64647 7.84928 1.58615 7.70364 1.58615 7.55178C1.58615 7.39992 1.64647 7.25427 1.75383 7.14687C2.54186 6.35882 3.67006 6.26833 4.47413 6.32217C4.86546 6.34959 5.25367 6.41091 5.6344 6.50544L9.22405 2.91684C9.19409 2.74241 9.17876 2.56578 9.17823 2.3888C9.17823 1.89627 9.30194 1.21818 9.85287 0.667232C9.9602 0.560171 10.1056 0.500033 10.2572 0.500001ZM10.3969 2.91913V2.91684V2.91913ZM10.3969 2.91684V2.91913C10.43 3.01989 10.4345 3.12786 10.4098 3.231C10.3851 3.33414 10.3323 3.42841 10.2572 3.50329L6.20824 7.5512C6.13301 7.62612 6.03844 7.67864 5.93508 7.70291C5.83173 7.72718 5.72366 7.72225 5.62295 7.68866H5.62066L5.60462 7.68407C5.49566 7.65143 5.38564 7.6224 5.27475 7.59702C4.98662 7.52981 4.69364 7.48538 4.39853 7.46415C3.91518 7.43208 3.44099 7.47332 3.0527 7.63597L9.36379 13.9461C9.52529 13.5566 9.56652 13.0836 9.53445 12.6002C9.50527 12.191 9.43153 11.7862 9.31453 11.3929L9.30995 11.3781V11.3769C9.27613 11.276 9.27107 11.1677 9.29535 11.0641C9.31963 10.9606 9.37228 10.8658 9.4474 10.7905L13.4975 6.74139C13.5755 6.66292 13.6745 6.60873 13.7827 6.58535C13.8908 6.56197 14.0034 6.57042 14.1068 6.60967L14.2168 6.63487C14.3164 6.65434 14.455 6.67381 14.6108 6.67381C14.7414 6.67381 14.8742 6.66121 15.0037 6.628L10.3706 1.99592C10.3374 2.12535 10.3248 2.25937 10.3248 2.3888C10.3253 2.56678 10.3492 2.74392 10.3958 2.91569L10.3969 2.91684Z" fill="#808080"/>
</svg>
