<svg width="17" height="15" viewBox="0 0 17 15" fill="none" xmlns="http://www.w3.org/2000/svg">
<path d="M9.30194 4.20422V1.66564C9.30194 1.44489 9.38624 1.23319 9.5363 1.07709C9.68636 0.921004 9.88988 0.833313 10.1021 0.833313C10.312 0.834232 10.5132 0.92092 10.6622 1.07469L16.2633 6.90095C16.3383 6.97833 16.3978 7.07038 16.4385 7.17181C16.4791 7.27324 16.5 7.38202 16.5 7.4919C16.5 7.60178 16.4791 7.71057 16.4385 7.81199C16.3978 7.91342 16.3383 8.00548 16.2633 8.08285L10.6622 13.9091C10.5499 14.0236 10.4076 14.1012 10.2531 14.1321C10.0987 14.163 9.93887 14.1458 9.79372 14.0828C9.64858 14.0197 9.52452 13.9135 9.43705 13.7776C9.34959 13.6416 9.30259 13.4818 9.30194 13.3182V10.738H8.62181C7.35762 10.7183 6.10447 10.9851 4.94935 11.5198C3.79422 12.0545 2.76478 12.8442 1.93249 13.8342C1.83218 13.9731 1.69261 14.0759 1.53334 14.1281C1.37406 14.1804 1.20306 14.1795 1.04431 14.1255C0.882754 14.0688 0.742837 13.9599 0.644961 13.8147C0.547085 13.6694 0.496367 13.4955 0.500203 13.3182C0.500203 5.72738 6.96548 4.42895 9.30194 4.20422ZM8.62181 9.05667C9.15699 9.05493 9.69166 9.09108 10.2221 9.16487C10.4116 9.19477 10.5844 9.29437 10.7092 9.44558C10.834 9.5968 10.9025 9.78957 10.9023 9.98887V11.3123L14.567 7.4919L10.9023 3.67154V4.99493C10.9023 5.21568 10.818 5.42738 10.6679 5.58347C10.5178 5.73956 10.3143 5.82725 10.1021 5.82725C9.37395 5.82725 3.61282 5.99372 2.36457 11.1791C4.17637 9.78958 6.37083 9.04523 8.62181 9.05667Z" fill="#808080"/>
</svg>
