<svg width="30" height="30" viewBox="0 0 30 30" fill="none" xmlns="http://www.w3.org/2000/svg">
<path d="M15 0C6.71371 0 0 6.71371 0 15C0 23.2863 6.71371 30 15 30C23.2863 30 30 23.2863 30 15C30 6.71371 23.2863 0 15 0ZM25.252 20.498C25.0403 20.9879 24.1573 21.3448 22.5423 21.5988C22.4577 21.7137 22.3911 22.1915 22.2823 22.5605C22.2157 22.7843 22.0585 22.9173 21.7923 22.9173H21.7802C21.4052 22.9173 21.006 22.7419 20.2198 22.7419C19.1552 22.7419 18.7863 22.9839 17.9577 23.5706C17.0806 24.1935 16.2399 24.7258 14.9819 24.6714C13.7117 24.7681 12.6472 23.994 12.0484 23.5706C11.2137 22.9839 10.8508 22.7419 9.78629 22.7419C9.03024 22.7419 8.55242 22.9294 8.22581 22.9294C7.89919 22.9294 7.77218 22.7298 7.72379 22.5665C7.61492 22.1976 7.54839 21.7137 7.46371 21.5988C6.62903 21.4718 4.75403 21.1452 4.71169 20.3044C4.6996 20.0867 4.85081 19.8931 5.06855 19.8569C7.86895 19.3972 9.12702 16.5242 9.18145 16.4032C9.18145 16.3972 9.1875 16.3911 9.19355 16.3851C9.34476 16.0827 9.375 15.8286 9.29032 15.629C9.08468 15.1512 8.20766 14.9819 7.83871 14.8306C6.88306 14.4556 6.75 14.0202 6.81048 13.7238C6.90726 13.2097 7.68145 12.8891 8.13508 13.1008C8.49193 13.2702 8.8125 13.3548 9.08468 13.3548C9.28427 13.3548 9.41734 13.3065 9.48387 13.2702C9.39919 11.8246 9.1996 9.7621 9.71371 8.60685C11.0746 5.56452 13.9536 5.32258 14.8004 5.32258C14.8367 5.32258 15.1694 5.31653 15.2056 5.31653C17.3044 5.31653 19.3185 6.39314 20.3044 8.60081C20.8185 9.75605 20.619 11.8125 20.5343 13.2641C20.6008 13.3004 20.7097 13.3427 20.879 13.3488C21.1391 13.3367 21.4355 13.252 21.7681 13.0948C22.0101 12.9798 22.3488 12.998 22.5907 13.0948C22.9718 13.2339 23.2137 13.506 23.2198 13.8145C23.2258 14.2077 22.875 14.5464 22.1794 14.8185C22.0948 14.8548 21.9919 14.8851 21.8831 14.9214C21.4899 15.0484 20.8911 15.2359 20.7339 15.6169C20.6492 15.8165 20.6855 16.0706 20.8306 16.373C20.8367 16.379 20.8367 16.3851 20.8427 16.3911C20.8972 16.5121 22.1552 19.3851 24.9556 19.8448C25.1976 19.9052 25.3851 20.1774 25.252 20.498Z" fill="#FFE3B3"/>
</svg>
